<?xml version="1.0" standalone="no"?><!-- Generator: Gravit.io --><svg xmlns="http://www.w3.org/2000/svg" xmlns:xlink="http://www.w3.org/1999/xlink" style="isolation:isolate" viewBox="0 0 390 500" width="390" height="500"><defs><clipPath id="_clipPath_uXZ7mxrOVdsBPA2X9YcMoPtPS4v3DBfl"><rect width="390" height="500"/></clipPath></defs><g clip-path="url(#_clipPath_uXZ7mxrOVdsBPA2X9YcMoPtPS4v3DBfl)"><path d=" M 142.694 364.333 L 142.694 364.333 Q 110.694 364.333 92.694 347.133 L 92.694 347.133 L 92.694 347.133 Q 74.694 329.933 74.694 298.533 L 74.694 298.533 L 74.694 298.533 Q 74.694 277.133 83.194 260.733 L 83.194 260.733 L 83.194 260.733 Q 91.694 244.333 107.294 235.433 L 107.294 235.433 L 107.294 235.433 Q 122.894 226.533 143.294 226.533 L 143.294 226.533 L 143.294 226.533 Q 159.894 226.533 175.294 232.533 L 175.294 232.533 L 169.894 258.333 L 169.894 258.333 Q 156.294 252.133 143.494 252.133 L 143.494 252.133 L 143.494 252.133 Q 125.294 252.133 114.694 264.033 L 114.694 264.033 L 114.694 264.033 Q 104.094 275.933 104.094 295.733 L 104.094 295.733 L 104.094 295.733 Q 104.094 315.933 115.294 327.133 L 115.294 327.133 L 115.294 327.133 Q 126.494 338.333 146.294 338.333 L 146.294 338.333 L 146.294 338.333 Q 159.294 338.333 171.494 334.133 L 171.494 334.133 L 175.894 358.733 L 175.894 358.733 Q 161.294 364.333 142.694 364.333 L 142.694 364.333 L 142.694 364.333 Z  M 232.294 361.733 L 187.294 228.533 L 219.294 228.533 L 250.894 330.133 L 282.294 228.533 L 312.094 228.533 L 267.294 361.733 L 232.294 361.733 L 232.294 361.733 Z " fill-rule="evenodd" fill="rgb(183,183,183)"/><path d=" M 368.16 96.018 L 286.242 14.1 C 277.455 5.313 265.543 0.333 253.143 0.333 L 53.866 0.333 C 27.992 0.431 7 21.423 7 47.297 L 7 453.467 C 7 479.341 27.992 500.333 53.866 500.333 L 335.061 500.333 C 360.935 500.333 381.927 479.341 381.927 453.467 L 381.927 129.214 C 381.927 116.814 376.947 104.805 368.16 96.018 Z  M 331.253 125.407 L 256.951 125.407 L 256.951 51.105 L 331.253 125.407 Z  M 53.866 453.467 L 53.866 47.297 L 210.085 47.297 L 210.085 148.839 C 210.085 161.825 220.533 172.272 233.518 172.272 L 335.061 172.272 L 335.061 453.467 L 53.866 453.467 Z " fill="rgb(183,183,183)"/></g></svg>