<?xml version="1.0" standalone="no"?><!-- Generator: Gravit.io --><svg xmlns="http://www.w3.org/2000/svg" xmlns:xlink="http://www.w3.org/1999/xlink" style="isolation:isolate" viewBox="0 0 900 900" width="900" height="900"><defs><clipPath id="_clipPath_VAOD2jCYnRBVSpwWsH0Edg2gbeVfayrO"><rect width="900" height="900"/></clipPath></defs><g clip-path="url(#_clipPath_VAOD2jCYnRBVSpwWsH0Edg2gbeVfayrO)"><path d=" M 60 505 Q 52.875 499.25 60 499 C 67.125 498.75 135.474 483.362 158 466 L 528.563 50 L 624 809 C 626.048 821.122 622.412 834.485 617 831 L 520 149 C 517.686 123.354 503.059 114.394 476 142 C 441.096 177.609 218.545 420.56 215 425 C 210.314 430.87 193.959 453.554 191 466 C 190.964 465.938 186.99 471.59 200 482 C 217.763 496.213 280.75 498.875 287 500 Q 293.25 501.125 285 505 L 60 505 Z " fill="rgb(255,255,255)" vector-effect="non-scaling-stroke" stroke-width="1" stroke="rgb(255,255,255)" stroke-linejoin="miter" stroke-linecap="square" stroke-miterlimit="3"/><path d=" M 29 291 L 861 291 Q 883.5 289.75 870 301 Q 856.5 312.25 835 299 L 44 299 L 31 303 Q 8.25 291 21 291 Q 33.75 291 29 291 Z " fill="rgb(255,255,255)" vector-effect="non-scaling-stroke" stroke-width="1" stroke="rgb(255,255,255)" stroke-linejoin="miter" stroke-linecap="square" stroke-miterlimit="3"/><path d=" M 572 437 Q 560.25 324 594 316 C 627.75 308 669.25 303.5 686 303 Q 702.75 302.5 799 296 L 547 294 L 333 299 Q 473 288.5 517 310 C 548.027 325.161 544.75 330.75 554 368 Q 563.561 406.502 572 437 Z " fill="rgb(255,255,255)" vector-effect="non-scaling-stroke" stroke-width="1" stroke="rgb(255,255,255)" stroke-linejoin="miter" stroke-linecap="square" stroke-miterlimit="3"/></g></svg>